%TF.GenerationSoftware,KiCad,Pcbnew,7.0.11*%
%TF.CreationDate,2025-03-12T11:36:08+01:00*%
%TF.ProjectId,pal-2-sd-shield-adapter,70616c2d-322d-4736-942d-736869656c64,rev?*%
%TF.SameCoordinates,Original*%
%TF.FileFunction,Legend,Bot*%
%TF.FilePolarity,Positive*%
%FSLAX46Y46*%
G04 Gerber Fmt 4.6, Leading zero omitted, Abs format (unit mm)*
G04 Created by KiCad (PCBNEW 7.0.11) date 2025-03-12 11:36:08*
%MOMM*%
%LPD*%
G01*
G04 APERTURE LIST*
G04 Aperture macros list*
%AMRoundRect*
0 Rectangle with rounded corners*
0 $1 Rounding radius*
0 $2 $3 $4 $5 $6 $7 $8 $9 X,Y pos of 4 corners*
0 Add a 4 corners polygon primitive as box body*
4,1,4,$2,$3,$4,$5,$6,$7,$8,$9,$2,$3,0*
0 Add four circle primitives for the rounded corners*
1,1,$1+$1,$2,$3*
1,1,$1+$1,$4,$5*
1,1,$1+$1,$6,$7*
1,1,$1+$1,$8,$9*
0 Add four rect primitives between the rounded corners*
20,1,$1+$1,$2,$3,$4,$5,0*
20,1,$1+$1,$4,$5,$6,$7,0*
20,1,$1+$1,$6,$7,$8,$9,0*
20,1,$1+$1,$8,$9,$2,$3,0*%
G04 Aperture macros list end*
%ADD10C,0.220000*%
%ADD11C,0.200000*%
%ADD12RoundRect,0.250000X0.600000X0.600000X-0.600000X0.600000X-0.600000X-0.600000X0.600000X-0.600000X0*%
%ADD13C,1.700000*%
%ADD14R,1.700000X1.700000*%
%ADD15O,1.700000X1.700000*%
G04 APERTURE END LIST*
D10*
X65981940Y-79001429D02*
X64881940Y-79001429D01*
X64881940Y-79001429D02*
X64881940Y-79420477D01*
X64881940Y-79420477D02*
X64934321Y-79525239D01*
X64934321Y-79525239D02*
X64986702Y-79577620D01*
X64986702Y-79577620D02*
X65091464Y-79630001D01*
X65091464Y-79630001D02*
X65248607Y-79630001D01*
X65248607Y-79630001D02*
X65353369Y-79577620D01*
X65353369Y-79577620D02*
X65405750Y-79525239D01*
X65405750Y-79525239D02*
X65458131Y-79420477D01*
X65458131Y-79420477D02*
X65458131Y-79001429D01*
X65667655Y-80049048D02*
X65667655Y-80572858D01*
X65981940Y-79944286D02*
X64881940Y-80310953D01*
X64881940Y-80310953D02*
X65981940Y-80677620D01*
X65981940Y-81568096D02*
X65981940Y-81044286D01*
X65981940Y-81044286D02*
X64881940Y-81044286D01*
X65562893Y-81934762D02*
X65562893Y-82772858D01*
X65981940Y-83296667D02*
X64881940Y-83296667D01*
X65981940Y-83820477D02*
X64881940Y-83820477D01*
X65248607Y-85025239D02*
X65248607Y-85444287D01*
X64881940Y-85182382D02*
X65824798Y-85182382D01*
X65824798Y-85182382D02*
X65929560Y-85234763D01*
X65929560Y-85234763D02*
X65981940Y-85339525D01*
X65981940Y-85339525D02*
X65981940Y-85444287D01*
X65981940Y-85968096D02*
X65929560Y-85863334D01*
X65929560Y-85863334D02*
X65877179Y-85810953D01*
X65877179Y-85810953D02*
X65772417Y-85758572D01*
X65772417Y-85758572D02*
X65458131Y-85758572D01*
X65458131Y-85758572D02*
X65353369Y-85810953D01*
X65353369Y-85810953D02*
X65300988Y-85863334D01*
X65300988Y-85863334D02*
X65248607Y-85968096D01*
X65248607Y-85968096D02*
X65248607Y-86125239D01*
X65248607Y-86125239D02*
X65300988Y-86230001D01*
X65300988Y-86230001D02*
X65353369Y-86282382D01*
X65353369Y-86282382D02*
X65458131Y-86334763D01*
X65458131Y-86334763D02*
X65772417Y-86334763D01*
X65772417Y-86334763D02*
X65877179Y-86282382D01*
X65877179Y-86282382D02*
X65929560Y-86230001D01*
X65929560Y-86230001D02*
X65981940Y-86125239D01*
X65981940Y-86125239D02*
X65981940Y-85968096D01*
X65929560Y-87591905D02*
X65981940Y-87749048D01*
X65981940Y-87749048D02*
X65981940Y-88010953D01*
X65981940Y-88010953D02*
X65929560Y-88115715D01*
X65929560Y-88115715D02*
X65877179Y-88168096D01*
X65877179Y-88168096D02*
X65772417Y-88220477D01*
X65772417Y-88220477D02*
X65667655Y-88220477D01*
X65667655Y-88220477D02*
X65562893Y-88168096D01*
X65562893Y-88168096D02*
X65510512Y-88115715D01*
X65510512Y-88115715D02*
X65458131Y-88010953D01*
X65458131Y-88010953D02*
X65405750Y-87801429D01*
X65405750Y-87801429D02*
X65353369Y-87696667D01*
X65353369Y-87696667D02*
X65300988Y-87644286D01*
X65300988Y-87644286D02*
X65196226Y-87591905D01*
X65196226Y-87591905D02*
X65091464Y-87591905D01*
X65091464Y-87591905D02*
X64986702Y-87644286D01*
X64986702Y-87644286D02*
X64934321Y-87696667D01*
X64934321Y-87696667D02*
X64881940Y-87801429D01*
X64881940Y-87801429D02*
X64881940Y-88063334D01*
X64881940Y-88063334D02*
X64934321Y-88220477D01*
X65981940Y-88691905D02*
X64881940Y-88691905D01*
X64881940Y-88691905D02*
X64881940Y-88953810D01*
X64881940Y-88953810D02*
X64934321Y-89110953D01*
X64934321Y-89110953D02*
X65039083Y-89215715D01*
X65039083Y-89215715D02*
X65143845Y-89268096D01*
X65143845Y-89268096D02*
X65353369Y-89320477D01*
X65353369Y-89320477D02*
X65510512Y-89320477D01*
X65510512Y-89320477D02*
X65720036Y-89268096D01*
X65720036Y-89268096D02*
X65824798Y-89215715D01*
X65824798Y-89215715D02*
X65929560Y-89110953D01*
X65929560Y-89110953D02*
X65981940Y-88953810D01*
X65981940Y-88953810D02*
X65981940Y-88691905D01*
X65929560Y-90577619D02*
X65981940Y-90734762D01*
X65981940Y-90734762D02*
X65981940Y-90996667D01*
X65981940Y-90996667D02*
X65929560Y-91101429D01*
X65929560Y-91101429D02*
X65877179Y-91153810D01*
X65877179Y-91153810D02*
X65772417Y-91206191D01*
X65772417Y-91206191D02*
X65667655Y-91206191D01*
X65667655Y-91206191D02*
X65562893Y-91153810D01*
X65562893Y-91153810D02*
X65510512Y-91101429D01*
X65510512Y-91101429D02*
X65458131Y-90996667D01*
X65458131Y-90996667D02*
X65405750Y-90787143D01*
X65405750Y-90787143D02*
X65353369Y-90682381D01*
X65353369Y-90682381D02*
X65300988Y-90630000D01*
X65300988Y-90630000D02*
X65196226Y-90577619D01*
X65196226Y-90577619D02*
X65091464Y-90577619D01*
X65091464Y-90577619D02*
X64986702Y-90630000D01*
X64986702Y-90630000D02*
X64934321Y-90682381D01*
X64934321Y-90682381D02*
X64881940Y-90787143D01*
X64881940Y-90787143D02*
X64881940Y-91049048D01*
X64881940Y-91049048D02*
X64934321Y-91206191D01*
X65981940Y-91677619D02*
X64881940Y-91677619D01*
X65981940Y-92149048D02*
X65405750Y-92149048D01*
X65405750Y-92149048D02*
X65300988Y-92096667D01*
X65300988Y-92096667D02*
X65248607Y-91991905D01*
X65248607Y-91991905D02*
X65248607Y-91834762D01*
X65248607Y-91834762D02*
X65300988Y-91730000D01*
X65300988Y-91730000D02*
X65353369Y-91677619D01*
X65981940Y-92672857D02*
X65248607Y-92672857D01*
X64881940Y-92672857D02*
X64934321Y-92620476D01*
X64934321Y-92620476D02*
X64986702Y-92672857D01*
X64986702Y-92672857D02*
X64934321Y-92725238D01*
X64934321Y-92725238D02*
X64881940Y-92672857D01*
X64881940Y-92672857D02*
X64986702Y-92672857D01*
X65929560Y-93615715D02*
X65981940Y-93510953D01*
X65981940Y-93510953D02*
X65981940Y-93301429D01*
X65981940Y-93301429D02*
X65929560Y-93196667D01*
X65929560Y-93196667D02*
X65824798Y-93144286D01*
X65824798Y-93144286D02*
X65405750Y-93144286D01*
X65405750Y-93144286D02*
X65300988Y-93196667D01*
X65300988Y-93196667D02*
X65248607Y-93301429D01*
X65248607Y-93301429D02*
X65248607Y-93510953D01*
X65248607Y-93510953D02*
X65300988Y-93615715D01*
X65300988Y-93615715D02*
X65405750Y-93668096D01*
X65405750Y-93668096D02*
X65510512Y-93668096D01*
X65510512Y-93668096D02*
X65615274Y-93144286D01*
X65981940Y-94296667D02*
X65929560Y-94191905D01*
X65929560Y-94191905D02*
X65824798Y-94139524D01*
X65824798Y-94139524D02*
X64881940Y-94139524D01*
X65981940Y-95187143D02*
X64881940Y-95187143D01*
X65929560Y-95187143D02*
X65981940Y-95082381D01*
X65981940Y-95082381D02*
X65981940Y-94872857D01*
X65981940Y-94872857D02*
X65929560Y-94768095D01*
X65929560Y-94768095D02*
X65877179Y-94715714D01*
X65877179Y-94715714D02*
X65772417Y-94663333D01*
X65772417Y-94663333D02*
X65458131Y-94663333D01*
X65458131Y-94663333D02*
X65353369Y-94715714D01*
X65353369Y-94715714D02*
X65300988Y-94768095D01*
X65300988Y-94768095D02*
X65248607Y-94872857D01*
X65248607Y-94872857D02*
X65248607Y-95082381D01*
X65248607Y-95082381D02*
X65300988Y-95187143D01*
X65981940Y-97020476D02*
X65405750Y-97020476D01*
X65405750Y-97020476D02*
X65300988Y-96968095D01*
X65300988Y-96968095D02*
X65248607Y-96863333D01*
X65248607Y-96863333D02*
X65248607Y-96653809D01*
X65248607Y-96653809D02*
X65300988Y-96549047D01*
X65929560Y-97020476D02*
X65981940Y-96915714D01*
X65981940Y-96915714D02*
X65981940Y-96653809D01*
X65981940Y-96653809D02*
X65929560Y-96549047D01*
X65929560Y-96549047D02*
X65824798Y-96496666D01*
X65824798Y-96496666D02*
X65720036Y-96496666D01*
X65720036Y-96496666D02*
X65615274Y-96549047D01*
X65615274Y-96549047D02*
X65562893Y-96653809D01*
X65562893Y-96653809D02*
X65562893Y-96915714D01*
X65562893Y-96915714D02*
X65510512Y-97020476D01*
X65981940Y-98015714D02*
X64881940Y-98015714D01*
X65929560Y-98015714D02*
X65981940Y-97910952D01*
X65981940Y-97910952D02*
X65981940Y-97701428D01*
X65981940Y-97701428D02*
X65929560Y-97596666D01*
X65929560Y-97596666D02*
X65877179Y-97544285D01*
X65877179Y-97544285D02*
X65772417Y-97491904D01*
X65772417Y-97491904D02*
X65458131Y-97491904D01*
X65458131Y-97491904D02*
X65353369Y-97544285D01*
X65353369Y-97544285D02*
X65300988Y-97596666D01*
X65300988Y-97596666D02*
X65248607Y-97701428D01*
X65248607Y-97701428D02*
X65248607Y-97910952D01*
X65248607Y-97910952D02*
X65300988Y-98015714D01*
X65981940Y-99010952D02*
X65405750Y-99010952D01*
X65405750Y-99010952D02*
X65300988Y-98958571D01*
X65300988Y-98958571D02*
X65248607Y-98853809D01*
X65248607Y-98853809D02*
X65248607Y-98644285D01*
X65248607Y-98644285D02*
X65300988Y-98539523D01*
X65929560Y-99010952D02*
X65981940Y-98906190D01*
X65981940Y-98906190D02*
X65981940Y-98644285D01*
X65981940Y-98644285D02*
X65929560Y-98539523D01*
X65929560Y-98539523D02*
X65824798Y-98487142D01*
X65824798Y-98487142D02*
X65720036Y-98487142D01*
X65720036Y-98487142D02*
X65615274Y-98539523D01*
X65615274Y-98539523D02*
X65562893Y-98644285D01*
X65562893Y-98644285D02*
X65562893Y-98906190D01*
X65562893Y-98906190D02*
X65510512Y-99010952D01*
X65248607Y-99534761D02*
X66348607Y-99534761D01*
X65300988Y-99534761D02*
X65248607Y-99639523D01*
X65248607Y-99639523D02*
X65248607Y-99849047D01*
X65248607Y-99849047D02*
X65300988Y-99953809D01*
X65300988Y-99953809D02*
X65353369Y-100006190D01*
X65353369Y-100006190D02*
X65458131Y-100058571D01*
X65458131Y-100058571D02*
X65772417Y-100058571D01*
X65772417Y-100058571D02*
X65877179Y-100006190D01*
X65877179Y-100006190D02*
X65929560Y-99953809D01*
X65929560Y-99953809D02*
X65981940Y-99849047D01*
X65981940Y-99849047D02*
X65981940Y-99639523D01*
X65981940Y-99639523D02*
X65929560Y-99534761D01*
X65248607Y-100372856D02*
X65248607Y-100791904D01*
X64881940Y-100529999D02*
X65824798Y-100529999D01*
X65824798Y-100529999D02*
X65929560Y-100582380D01*
X65929560Y-100582380D02*
X65981940Y-100687142D01*
X65981940Y-100687142D02*
X65981940Y-100791904D01*
X65929560Y-101577618D02*
X65981940Y-101472856D01*
X65981940Y-101472856D02*
X65981940Y-101263332D01*
X65981940Y-101263332D02*
X65929560Y-101158570D01*
X65929560Y-101158570D02*
X65824798Y-101106189D01*
X65824798Y-101106189D02*
X65405750Y-101106189D01*
X65405750Y-101106189D02*
X65300988Y-101158570D01*
X65300988Y-101158570D02*
X65248607Y-101263332D01*
X65248607Y-101263332D02*
X65248607Y-101472856D01*
X65248607Y-101472856D02*
X65300988Y-101577618D01*
X65300988Y-101577618D02*
X65405750Y-101629999D01*
X65405750Y-101629999D02*
X65510512Y-101629999D01*
X65510512Y-101629999D02*
X65615274Y-101106189D01*
X65981940Y-102101427D02*
X65248607Y-102101427D01*
X65458131Y-102101427D02*
X65353369Y-102153808D01*
X65353369Y-102153808D02*
X65300988Y-102206189D01*
X65300988Y-102206189D02*
X65248607Y-102310951D01*
X65248607Y-102310951D02*
X65248607Y-102415713D01*
X67752940Y-76330000D02*
X66652940Y-76330000D01*
X67752940Y-76801429D02*
X67176750Y-76801429D01*
X67176750Y-76801429D02*
X67071988Y-76749048D01*
X67071988Y-76749048D02*
X67019607Y-76644286D01*
X67019607Y-76644286D02*
X67019607Y-76487143D01*
X67019607Y-76487143D02*
X67071988Y-76382381D01*
X67071988Y-76382381D02*
X67124369Y-76330000D01*
X67019607Y-77168095D02*
X67019607Y-77587143D01*
X66652940Y-77325238D02*
X67595798Y-77325238D01*
X67595798Y-77325238D02*
X67700560Y-77377619D01*
X67700560Y-77377619D02*
X67752940Y-77482381D01*
X67752940Y-77482381D02*
X67752940Y-77587143D01*
X67019607Y-77796666D02*
X67019607Y-78215714D01*
X66652940Y-77953809D02*
X67595798Y-77953809D01*
X67595798Y-77953809D02*
X67700560Y-78006190D01*
X67700560Y-78006190D02*
X67752940Y-78110952D01*
X67752940Y-78110952D02*
X67752940Y-78215714D01*
X67019607Y-78582380D02*
X68119607Y-78582380D01*
X67071988Y-78582380D02*
X67019607Y-78687142D01*
X67019607Y-78687142D02*
X67019607Y-78896666D01*
X67019607Y-78896666D02*
X67071988Y-79001428D01*
X67071988Y-79001428D02*
X67124369Y-79053809D01*
X67124369Y-79053809D02*
X67229131Y-79106190D01*
X67229131Y-79106190D02*
X67543417Y-79106190D01*
X67543417Y-79106190D02*
X67648179Y-79053809D01*
X67648179Y-79053809D02*
X67700560Y-79001428D01*
X67700560Y-79001428D02*
X67752940Y-78896666D01*
X67752940Y-78896666D02*
X67752940Y-78687142D01*
X67752940Y-78687142D02*
X67700560Y-78582380D01*
X67700560Y-79525237D02*
X67752940Y-79629999D01*
X67752940Y-79629999D02*
X67752940Y-79839523D01*
X67752940Y-79839523D02*
X67700560Y-79944285D01*
X67700560Y-79944285D02*
X67595798Y-79996666D01*
X67595798Y-79996666D02*
X67543417Y-79996666D01*
X67543417Y-79996666D02*
X67438655Y-79944285D01*
X67438655Y-79944285D02*
X67386274Y-79839523D01*
X67386274Y-79839523D02*
X67386274Y-79682380D01*
X67386274Y-79682380D02*
X67333893Y-79577618D01*
X67333893Y-79577618D02*
X67229131Y-79525237D01*
X67229131Y-79525237D02*
X67176750Y-79525237D01*
X67176750Y-79525237D02*
X67071988Y-79577618D01*
X67071988Y-79577618D02*
X67019607Y-79682380D01*
X67019607Y-79682380D02*
X67019607Y-79839523D01*
X67019607Y-79839523D02*
X67071988Y-79944285D01*
X67648179Y-80468094D02*
X67700560Y-80520475D01*
X67700560Y-80520475D02*
X67752940Y-80468094D01*
X67752940Y-80468094D02*
X67700560Y-80415713D01*
X67700560Y-80415713D02*
X67648179Y-80468094D01*
X67648179Y-80468094D02*
X67752940Y-80468094D01*
X67071988Y-80468094D02*
X67124369Y-80520475D01*
X67124369Y-80520475D02*
X67176750Y-80468094D01*
X67176750Y-80468094D02*
X67124369Y-80415713D01*
X67124369Y-80415713D02*
X67071988Y-80468094D01*
X67071988Y-80468094D02*
X67176750Y-80468094D01*
X66600560Y-81777619D02*
X68014845Y-80834761D01*
X66600560Y-82930000D02*
X68014845Y-81987142D01*
X67019607Y-83768095D02*
X67910083Y-83768095D01*
X67910083Y-83768095D02*
X68014845Y-83715714D01*
X68014845Y-83715714D02*
X68067226Y-83663333D01*
X68067226Y-83663333D02*
X68119607Y-83558571D01*
X68119607Y-83558571D02*
X68119607Y-83401428D01*
X68119607Y-83401428D02*
X68067226Y-83296666D01*
X67700560Y-83768095D02*
X67752940Y-83663333D01*
X67752940Y-83663333D02*
X67752940Y-83453809D01*
X67752940Y-83453809D02*
X67700560Y-83349047D01*
X67700560Y-83349047D02*
X67648179Y-83296666D01*
X67648179Y-83296666D02*
X67543417Y-83244285D01*
X67543417Y-83244285D02*
X67229131Y-83244285D01*
X67229131Y-83244285D02*
X67124369Y-83296666D01*
X67124369Y-83296666D02*
X67071988Y-83349047D01*
X67071988Y-83349047D02*
X67019607Y-83453809D01*
X67019607Y-83453809D02*
X67019607Y-83663333D01*
X67019607Y-83663333D02*
X67071988Y-83768095D01*
X67752940Y-84291904D02*
X67019607Y-84291904D01*
X66652940Y-84291904D02*
X66705321Y-84239523D01*
X66705321Y-84239523D02*
X66757702Y-84291904D01*
X66757702Y-84291904D02*
X66705321Y-84344285D01*
X66705321Y-84344285D02*
X66652940Y-84291904D01*
X66652940Y-84291904D02*
X66757702Y-84291904D01*
X67019607Y-84658571D02*
X67019607Y-85077619D01*
X66652940Y-84815714D02*
X67595798Y-84815714D01*
X67595798Y-84815714D02*
X67700560Y-84868095D01*
X67700560Y-84868095D02*
X67752940Y-84972857D01*
X67752940Y-84972857D02*
X67752940Y-85077619D01*
X67752940Y-85444285D02*
X66652940Y-85444285D01*
X67752940Y-85915714D02*
X67176750Y-85915714D01*
X67176750Y-85915714D02*
X67071988Y-85863333D01*
X67071988Y-85863333D02*
X67019607Y-85758571D01*
X67019607Y-85758571D02*
X67019607Y-85601428D01*
X67019607Y-85601428D02*
X67071988Y-85496666D01*
X67071988Y-85496666D02*
X67124369Y-85444285D01*
X67019607Y-86910952D02*
X67752940Y-86910952D01*
X67019607Y-86439523D02*
X67595798Y-86439523D01*
X67595798Y-86439523D02*
X67700560Y-86491904D01*
X67700560Y-86491904D02*
X67752940Y-86596666D01*
X67752940Y-86596666D02*
X67752940Y-86753809D01*
X67752940Y-86753809D02*
X67700560Y-86858571D01*
X67700560Y-86858571D02*
X67648179Y-86910952D01*
X67752940Y-87434761D02*
X66652940Y-87434761D01*
X67071988Y-87434761D02*
X67019607Y-87539523D01*
X67019607Y-87539523D02*
X67019607Y-87749047D01*
X67019607Y-87749047D02*
X67071988Y-87853809D01*
X67071988Y-87853809D02*
X67124369Y-87906190D01*
X67124369Y-87906190D02*
X67229131Y-87958571D01*
X67229131Y-87958571D02*
X67543417Y-87958571D01*
X67543417Y-87958571D02*
X67648179Y-87906190D01*
X67648179Y-87906190D02*
X67700560Y-87853809D01*
X67700560Y-87853809D02*
X67752940Y-87749047D01*
X67752940Y-87749047D02*
X67752940Y-87539523D01*
X67752940Y-87539523D02*
X67700560Y-87434761D01*
X67648179Y-88429999D02*
X67700560Y-88482380D01*
X67700560Y-88482380D02*
X67752940Y-88429999D01*
X67752940Y-88429999D02*
X67700560Y-88377618D01*
X67700560Y-88377618D02*
X67648179Y-88429999D01*
X67648179Y-88429999D02*
X67752940Y-88429999D01*
X67700560Y-89425238D02*
X67752940Y-89320476D01*
X67752940Y-89320476D02*
X67752940Y-89110952D01*
X67752940Y-89110952D02*
X67700560Y-89006190D01*
X67700560Y-89006190D02*
X67648179Y-88953809D01*
X67648179Y-88953809D02*
X67543417Y-88901428D01*
X67543417Y-88901428D02*
X67229131Y-88901428D01*
X67229131Y-88901428D02*
X67124369Y-88953809D01*
X67124369Y-88953809D02*
X67071988Y-89006190D01*
X67071988Y-89006190D02*
X67019607Y-89110952D01*
X67019607Y-89110952D02*
X67019607Y-89320476D01*
X67019607Y-89320476D02*
X67071988Y-89425238D01*
X67752940Y-90053809D02*
X67700560Y-89949047D01*
X67700560Y-89949047D02*
X67648179Y-89896666D01*
X67648179Y-89896666D02*
X67543417Y-89844285D01*
X67543417Y-89844285D02*
X67229131Y-89844285D01*
X67229131Y-89844285D02*
X67124369Y-89896666D01*
X67124369Y-89896666D02*
X67071988Y-89949047D01*
X67071988Y-89949047D02*
X67019607Y-90053809D01*
X67019607Y-90053809D02*
X67019607Y-90210952D01*
X67019607Y-90210952D02*
X67071988Y-90315714D01*
X67071988Y-90315714D02*
X67124369Y-90368095D01*
X67124369Y-90368095D02*
X67229131Y-90420476D01*
X67229131Y-90420476D02*
X67543417Y-90420476D01*
X67543417Y-90420476D02*
X67648179Y-90368095D01*
X67648179Y-90368095D02*
X67700560Y-90315714D01*
X67700560Y-90315714D02*
X67752940Y-90210952D01*
X67752940Y-90210952D02*
X67752940Y-90053809D01*
X67752940Y-90891904D02*
X67019607Y-90891904D01*
X67124369Y-90891904D02*
X67071988Y-90944285D01*
X67071988Y-90944285D02*
X67019607Y-91049047D01*
X67019607Y-91049047D02*
X67019607Y-91206190D01*
X67019607Y-91206190D02*
X67071988Y-91310952D01*
X67071988Y-91310952D02*
X67176750Y-91363333D01*
X67176750Y-91363333D02*
X67752940Y-91363333D01*
X67176750Y-91363333D02*
X67071988Y-91415714D01*
X67071988Y-91415714D02*
X67019607Y-91520476D01*
X67019607Y-91520476D02*
X67019607Y-91677619D01*
X67019607Y-91677619D02*
X67071988Y-91782380D01*
X67071988Y-91782380D02*
X67176750Y-91834761D01*
X67176750Y-91834761D02*
X67752940Y-91834761D01*
X66600560Y-93144286D02*
X68014845Y-92201428D01*
X67700560Y-93930000D02*
X67752940Y-93825238D01*
X67752940Y-93825238D02*
X67752940Y-93615714D01*
X67752940Y-93615714D02*
X67700560Y-93510952D01*
X67700560Y-93510952D02*
X67595798Y-93458571D01*
X67595798Y-93458571D02*
X67176750Y-93458571D01*
X67176750Y-93458571D02*
X67071988Y-93510952D01*
X67071988Y-93510952D02*
X67019607Y-93615714D01*
X67019607Y-93615714D02*
X67019607Y-93825238D01*
X67019607Y-93825238D02*
X67071988Y-93930000D01*
X67071988Y-93930000D02*
X67176750Y-93982381D01*
X67176750Y-93982381D02*
X67281512Y-93982381D01*
X67281512Y-93982381D02*
X67386274Y-93458571D01*
X67752940Y-94925238D02*
X66652940Y-94925238D01*
X67700560Y-94925238D02*
X67752940Y-94820476D01*
X67752940Y-94820476D02*
X67752940Y-94610952D01*
X67752940Y-94610952D02*
X67700560Y-94506190D01*
X67700560Y-94506190D02*
X67648179Y-94453809D01*
X67648179Y-94453809D02*
X67543417Y-94401428D01*
X67543417Y-94401428D02*
X67229131Y-94401428D01*
X67229131Y-94401428D02*
X67124369Y-94453809D01*
X67124369Y-94453809D02*
X67071988Y-94506190D01*
X67071988Y-94506190D02*
X67019607Y-94610952D01*
X67019607Y-94610952D02*
X67019607Y-94820476D01*
X67019607Y-94820476D02*
X67071988Y-94925238D01*
X67019607Y-95920476D02*
X67752940Y-95920476D01*
X67019607Y-95449047D02*
X67595798Y-95449047D01*
X67595798Y-95449047D02*
X67700560Y-95501428D01*
X67700560Y-95501428D02*
X67752940Y-95606190D01*
X67752940Y-95606190D02*
X67752940Y-95763333D01*
X67752940Y-95763333D02*
X67700560Y-95868095D01*
X67700560Y-95868095D02*
X67648179Y-95920476D01*
X67752940Y-96915714D02*
X67176750Y-96915714D01*
X67176750Y-96915714D02*
X67071988Y-96863333D01*
X67071988Y-96863333D02*
X67019607Y-96758571D01*
X67019607Y-96758571D02*
X67019607Y-96549047D01*
X67019607Y-96549047D02*
X67071988Y-96444285D01*
X67700560Y-96915714D02*
X67752940Y-96810952D01*
X67752940Y-96810952D02*
X67752940Y-96549047D01*
X67752940Y-96549047D02*
X67700560Y-96444285D01*
X67700560Y-96444285D02*
X67595798Y-96391904D01*
X67595798Y-96391904D02*
X67491036Y-96391904D01*
X67491036Y-96391904D02*
X67386274Y-96444285D01*
X67386274Y-96444285D02*
X67333893Y-96549047D01*
X67333893Y-96549047D02*
X67333893Y-96810952D01*
X67333893Y-96810952D02*
X67281512Y-96915714D01*
X67752940Y-97439523D02*
X67019607Y-97439523D01*
X67229131Y-97439523D02*
X67124369Y-97491904D01*
X67124369Y-97491904D02*
X67071988Y-97544285D01*
X67071988Y-97544285D02*
X67019607Y-97649047D01*
X67019607Y-97649047D02*
X67019607Y-97753809D01*
X67752940Y-98591904D02*
X66652940Y-98591904D01*
X67700560Y-98591904D02*
X67752940Y-98487142D01*
X67752940Y-98487142D02*
X67752940Y-98277618D01*
X67752940Y-98277618D02*
X67700560Y-98172856D01*
X67700560Y-98172856D02*
X67648179Y-98120475D01*
X67648179Y-98120475D02*
X67543417Y-98068094D01*
X67543417Y-98068094D02*
X67229131Y-98068094D01*
X67229131Y-98068094D02*
X67124369Y-98120475D01*
X67124369Y-98120475D02*
X67071988Y-98172856D01*
X67071988Y-98172856D02*
X67019607Y-98277618D01*
X67019607Y-98277618D02*
X67019607Y-98487142D01*
X67019607Y-98487142D02*
X67071988Y-98591904D01*
X67752940Y-99272856D02*
X67700560Y-99168094D01*
X67700560Y-99168094D02*
X67648179Y-99115713D01*
X67648179Y-99115713D02*
X67543417Y-99063332D01*
X67543417Y-99063332D02*
X67229131Y-99063332D01*
X67229131Y-99063332D02*
X67124369Y-99115713D01*
X67124369Y-99115713D02*
X67071988Y-99168094D01*
X67071988Y-99168094D02*
X67019607Y-99272856D01*
X67019607Y-99272856D02*
X67019607Y-99429999D01*
X67019607Y-99429999D02*
X67071988Y-99534761D01*
X67071988Y-99534761D02*
X67124369Y-99587142D01*
X67124369Y-99587142D02*
X67229131Y-99639523D01*
X67229131Y-99639523D02*
X67543417Y-99639523D01*
X67543417Y-99639523D02*
X67648179Y-99587142D01*
X67648179Y-99587142D02*
X67700560Y-99534761D01*
X67700560Y-99534761D02*
X67752940Y-99429999D01*
X67752940Y-99429999D02*
X67752940Y-99272856D01*
X67700560Y-100582380D02*
X67752940Y-100477618D01*
X67752940Y-100477618D02*
X67752940Y-100268094D01*
X67752940Y-100268094D02*
X67700560Y-100163332D01*
X67700560Y-100163332D02*
X67648179Y-100110951D01*
X67648179Y-100110951D02*
X67543417Y-100058570D01*
X67543417Y-100058570D02*
X67229131Y-100058570D01*
X67229131Y-100058570D02*
X67124369Y-100110951D01*
X67124369Y-100110951D02*
X67071988Y-100163332D01*
X67071988Y-100163332D02*
X67019607Y-100268094D01*
X67019607Y-100268094D02*
X67019607Y-100477618D01*
X67019607Y-100477618D02*
X67071988Y-100582380D01*
X67752940Y-101525237D02*
X67176750Y-101525237D01*
X67176750Y-101525237D02*
X67071988Y-101472856D01*
X67071988Y-101472856D02*
X67019607Y-101368094D01*
X67019607Y-101368094D02*
X67019607Y-101158570D01*
X67019607Y-101158570D02*
X67071988Y-101053808D01*
X67700560Y-101525237D02*
X67752940Y-101420475D01*
X67752940Y-101420475D02*
X67752940Y-101158570D01*
X67752940Y-101158570D02*
X67700560Y-101053808D01*
X67700560Y-101053808D02*
X67595798Y-101001427D01*
X67595798Y-101001427D02*
X67491036Y-101001427D01*
X67491036Y-101001427D02*
X67386274Y-101053808D01*
X67386274Y-101053808D02*
X67333893Y-101158570D01*
X67333893Y-101158570D02*
X67333893Y-101420475D01*
X67333893Y-101420475D02*
X67281512Y-101525237D01*
X67700560Y-101996665D02*
X67752940Y-102101427D01*
X67752940Y-102101427D02*
X67752940Y-102310951D01*
X67752940Y-102310951D02*
X67700560Y-102415713D01*
X67700560Y-102415713D02*
X67595798Y-102468094D01*
X67595798Y-102468094D02*
X67543417Y-102468094D01*
X67543417Y-102468094D02*
X67438655Y-102415713D01*
X67438655Y-102415713D02*
X67386274Y-102310951D01*
X67386274Y-102310951D02*
X67386274Y-102153808D01*
X67386274Y-102153808D02*
X67333893Y-102049046D01*
X67333893Y-102049046D02*
X67229131Y-101996665D01*
X67229131Y-101996665D02*
X67176750Y-101996665D01*
X67176750Y-101996665D02*
X67071988Y-102049046D01*
X67071988Y-102049046D02*
X67019607Y-102153808D01*
X67019607Y-102153808D02*
X67019607Y-102310951D01*
X67019607Y-102310951D02*
X67071988Y-102415713D01*
X67752940Y-102939522D02*
X67019607Y-102939522D01*
X66652940Y-102939522D02*
X66705321Y-102887141D01*
X66705321Y-102887141D02*
X66757702Y-102939522D01*
X66757702Y-102939522D02*
X66705321Y-102991903D01*
X66705321Y-102991903D02*
X66652940Y-102939522D01*
X66652940Y-102939522D02*
X66757702Y-102939522D01*
X67019607Y-103463332D02*
X67752940Y-103463332D01*
X67124369Y-103463332D02*
X67071988Y-103515713D01*
X67071988Y-103515713D02*
X67019607Y-103620475D01*
X67019607Y-103620475D02*
X67019607Y-103777618D01*
X67019607Y-103777618D02*
X67071988Y-103882380D01*
X67071988Y-103882380D02*
X67176750Y-103934761D01*
X67176750Y-103934761D02*
X67752940Y-103934761D01*
X67752940Y-104615713D02*
X67700560Y-104510951D01*
X67700560Y-104510951D02*
X67648179Y-104458570D01*
X67648179Y-104458570D02*
X67543417Y-104406189D01*
X67543417Y-104406189D02*
X67229131Y-104406189D01*
X67229131Y-104406189D02*
X67124369Y-104458570D01*
X67124369Y-104458570D02*
X67071988Y-104510951D01*
X67071988Y-104510951D02*
X67019607Y-104615713D01*
X67019607Y-104615713D02*
X67019607Y-104772856D01*
X67019607Y-104772856D02*
X67071988Y-104877618D01*
X67071988Y-104877618D02*
X67124369Y-104929999D01*
X67124369Y-104929999D02*
X67229131Y-104982380D01*
X67229131Y-104982380D02*
X67543417Y-104982380D01*
X67543417Y-104982380D02*
X67648179Y-104929999D01*
X67648179Y-104929999D02*
X67700560Y-104877618D01*
X67700560Y-104877618D02*
X67752940Y-104772856D01*
X67752940Y-104772856D02*
X67752940Y-104615713D01*
D11*
X77168480Y-84527619D02*
X77168480Y-85156191D01*
X78268480Y-84841905D02*
X77168480Y-84841905D01*
X78268480Y-85522857D02*
X77168480Y-85522857D01*
X78268480Y-85994286D02*
X77692290Y-85994286D01*
X77692290Y-85994286D02*
X77587528Y-85941905D01*
X77587528Y-85941905D02*
X77535147Y-85837143D01*
X77535147Y-85837143D02*
X77535147Y-85680000D01*
X77535147Y-85680000D02*
X77587528Y-85575238D01*
X77587528Y-85575238D02*
X77639909Y-85522857D01*
X78268480Y-86518095D02*
X77535147Y-86518095D01*
X77168480Y-86518095D02*
X77220861Y-86465714D01*
X77220861Y-86465714D02*
X77273242Y-86518095D01*
X77273242Y-86518095D02*
X77220861Y-86570476D01*
X77220861Y-86570476D02*
X77168480Y-86518095D01*
X77168480Y-86518095D02*
X77273242Y-86518095D01*
X78216100Y-86989524D02*
X78268480Y-87094286D01*
X78268480Y-87094286D02*
X78268480Y-87303810D01*
X78268480Y-87303810D02*
X78216100Y-87408572D01*
X78216100Y-87408572D02*
X78111338Y-87460953D01*
X78111338Y-87460953D02*
X78058957Y-87460953D01*
X78058957Y-87460953D02*
X77954195Y-87408572D01*
X77954195Y-87408572D02*
X77901814Y-87303810D01*
X77901814Y-87303810D02*
X77901814Y-87146667D01*
X77901814Y-87146667D02*
X77849433Y-87041905D01*
X77849433Y-87041905D02*
X77744671Y-86989524D01*
X77744671Y-86989524D02*
X77692290Y-86989524D01*
X77692290Y-86989524D02*
X77587528Y-87041905D01*
X77587528Y-87041905D02*
X77535147Y-87146667D01*
X77535147Y-87146667D02*
X77535147Y-87303810D01*
X77535147Y-87303810D02*
X77587528Y-87408572D01*
X78216100Y-88718095D02*
X78268480Y-88822857D01*
X78268480Y-88822857D02*
X78268480Y-89032381D01*
X78268480Y-89032381D02*
X78216100Y-89137143D01*
X78216100Y-89137143D02*
X78111338Y-89189524D01*
X78111338Y-89189524D02*
X78058957Y-89189524D01*
X78058957Y-89189524D02*
X77954195Y-89137143D01*
X77954195Y-89137143D02*
X77901814Y-89032381D01*
X77901814Y-89032381D02*
X77901814Y-88875238D01*
X77901814Y-88875238D02*
X77849433Y-88770476D01*
X77849433Y-88770476D02*
X77744671Y-88718095D01*
X77744671Y-88718095D02*
X77692290Y-88718095D01*
X77692290Y-88718095D02*
X77587528Y-88770476D01*
X77587528Y-88770476D02*
X77535147Y-88875238D01*
X77535147Y-88875238D02*
X77535147Y-89032381D01*
X77535147Y-89032381D02*
X77587528Y-89137143D01*
X78268480Y-89660952D02*
X77535147Y-89660952D01*
X77168480Y-89660952D02*
X77220861Y-89608571D01*
X77220861Y-89608571D02*
X77273242Y-89660952D01*
X77273242Y-89660952D02*
X77220861Y-89713333D01*
X77220861Y-89713333D02*
X77168480Y-89660952D01*
X77168480Y-89660952D02*
X77273242Y-89660952D01*
X78268480Y-90656191D02*
X77168480Y-90656191D01*
X78216100Y-90656191D02*
X78268480Y-90551429D01*
X78268480Y-90551429D02*
X78268480Y-90341905D01*
X78268480Y-90341905D02*
X78216100Y-90237143D01*
X78216100Y-90237143D02*
X78163719Y-90184762D01*
X78163719Y-90184762D02*
X78058957Y-90132381D01*
X78058957Y-90132381D02*
X77744671Y-90132381D01*
X77744671Y-90132381D02*
X77639909Y-90184762D01*
X77639909Y-90184762D02*
X77587528Y-90237143D01*
X77587528Y-90237143D02*
X77535147Y-90341905D01*
X77535147Y-90341905D02*
X77535147Y-90551429D01*
X77535147Y-90551429D02*
X77587528Y-90656191D01*
X78216100Y-91599048D02*
X78268480Y-91494286D01*
X78268480Y-91494286D02*
X78268480Y-91284762D01*
X78268480Y-91284762D02*
X78216100Y-91180000D01*
X78216100Y-91180000D02*
X78111338Y-91127619D01*
X78111338Y-91127619D02*
X77692290Y-91127619D01*
X77692290Y-91127619D02*
X77587528Y-91180000D01*
X77587528Y-91180000D02*
X77535147Y-91284762D01*
X77535147Y-91284762D02*
X77535147Y-91494286D01*
X77535147Y-91494286D02*
X77587528Y-91599048D01*
X77587528Y-91599048D02*
X77692290Y-91651429D01*
X77692290Y-91651429D02*
X77797052Y-91651429D01*
X77797052Y-91651429D02*
X77901814Y-91127619D01*
X78268480Y-93432381D02*
X77168480Y-93432381D01*
X78216100Y-93432381D02*
X78268480Y-93327619D01*
X78268480Y-93327619D02*
X78268480Y-93118095D01*
X78268480Y-93118095D02*
X78216100Y-93013333D01*
X78216100Y-93013333D02*
X78163719Y-92960952D01*
X78163719Y-92960952D02*
X78058957Y-92908571D01*
X78058957Y-92908571D02*
X77744671Y-92908571D01*
X77744671Y-92908571D02*
X77639909Y-92960952D01*
X77639909Y-92960952D02*
X77587528Y-93013333D01*
X77587528Y-93013333D02*
X77535147Y-93118095D01*
X77535147Y-93118095D02*
X77535147Y-93327619D01*
X77535147Y-93327619D02*
X77587528Y-93432381D01*
X78268480Y-94113333D02*
X78216100Y-94008571D01*
X78216100Y-94008571D02*
X78163719Y-93956190D01*
X78163719Y-93956190D02*
X78058957Y-93903809D01*
X78058957Y-93903809D02*
X77744671Y-93903809D01*
X77744671Y-93903809D02*
X77639909Y-93956190D01*
X77639909Y-93956190D02*
X77587528Y-94008571D01*
X77587528Y-94008571D02*
X77535147Y-94113333D01*
X77535147Y-94113333D02*
X77535147Y-94270476D01*
X77535147Y-94270476D02*
X77587528Y-94375238D01*
X77587528Y-94375238D02*
X77639909Y-94427619D01*
X77639909Y-94427619D02*
X77744671Y-94480000D01*
X77744671Y-94480000D02*
X78058957Y-94480000D01*
X78058957Y-94480000D02*
X78163719Y-94427619D01*
X78163719Y-94427619D02*
X78216100Y-94375238D01*
X78216100Y-94375238D02*
X78268480Y-94270476D01*
X78268480Y-94270476D02*
X78268480Y-94113333D01*
X77535147Y-94846666D02*
X78268480Y-95056190D01*
X78268480Y-95056190D02*
X77744671Y-95265714D01*
X77744671Y-95265714D02*
X78268480Y-95475238D01*
X78268480Y-95475238D02*
X77535147Y-95684762D01*
X77535147Y-96103809D02*
X78268480Y-96103809D01*
X77639909Y-96103809D02*
X77587528Y-96156190D01*
X77587528Y-96156190D02*
X77535147Y-96260952D01*
X77535147Y-96260952D02*
X77535147Y-96418095D01*
X77535147Y-96418095D02*
X77587528Y-96522857D01*
X77587528Y-96522857D02*
X77692290Y-96575238D01*
X77692290Y-96575238D02*
X78268480Y-96575238D01*
%LPC*%
D12*
%TO.C,J1*%
X74740000Y-105870000D03*
D13*
X72200000Y-105870000D03*
X74740000Y-103330000D03*
X72200000Y-103330000D03*
X74740000Y-100790000D03*
X72200000Y-100790000D03*
X74740000Y-98250000D03*
X72200000Y-98250000D03*
X74740000Y-95710000D03*
X72200000Y-95710000D03*
X74740000Y-93170000D03*
X72200000Y-93170000D03*
X74740000Y-90630000D03*
X72200000Y-90630000D03*
X74740000Y-88090000D03*
X72200000Y-88090000D03*
X74740000Y-85550000D03*
X72200000Y-85550000D03*
X74740000Y-83010000D03*
X72200000Y-83010000D03*
X74740000Y-80470000D03*
X72200000Y-80470000D03*
X74740000Y-77930000D03*
X72200000Y-77930000D03*
X74740000Y-75390000D03*
X72200000Y-75390000D03*
%TD*%
D14*
%TO.C,J2*%
X81055000Y-100790000D03*
D15*
X83595000Y-100790000D03*
X81055000Y-98250000D03*
X83595000Y-98250000D03*
X81055000Y-95710000D03*
X83595000Y-95710000D03*
X81055000Y-93170000D03*
X83595000Y-93170000D03*
X81055000Y-90630000D03*
X83595000Y-90630000D03*
X81055000Y-88090000D03*
X83595000Y-88090000D03*
X81055000Y-85550000D03*
X83595000Y-85550000D03*
X81055000Y-83010000D03*
X83595000Y-83010000D03*
X81055000Y-80470000D03*
X83595000Y-80470000D03*
%TD*%
%LPD*%
M02*
