%TF.GenerationSoftware,KiCad,Pcbnew,7.0.11*%
%TF.CreationDate,2025-03-12T11:36:08+01:00*%
%TF.ProjectId,pal-2-sd-shield-adapter,70616c2d-322d-4736-942d-736869656c64,rev?*%
%TF.SameCoordinates,Original*%
%TF.FileFunction,Legend,Top*%
%TF.FilePolarity,Positive*%
%FSLAX46Y46*%
G04 Gerber Fmt 4.6, Leading zero omitted, Abs format (unit mm)*
G04 Created by KiCad (PCBNEW 7.0.11) date 2025-03-12 11:36:08*
%MOMM*%
%LPD*%
G01*
G04 APERTURE LIST*
G04 Aperture macros list*
%AMRoundRect*
0 Rectangle with rounded corners*
0 $1 Rounding radius*
0 $2 $3 $4 $5 $6 $7 $8 $9 X,Y pos of 4 corners*
0 Add a 4 corners polygon primitive as box body*
4,1,4,$2,$3,$4,$5,$6,$7,$8,$9,$2,$3,0*
0 Add four circle primitives for the rounded corners*
1,1,$1+$1,$2,$3*
1,1,$1+$1,$4,$5*
1,1,$1+$1,$6,$7*
1,1,$1+$1,$8,$9*
0 Add four rect primitives between the rounded corners*
20,1,$1+$1,$2,$3,$4,$5,0*
20,1,$1+$1,$4,$5,$6,$7,0*
20,1,$1+$1,$6,$7,$8,$9,0*
20,1,$1+$1,$8,$9,$2,$3,0*%
G04 Aperture macros list end*
%ADD10C,0.200000*%
%ADD11C,0.150000*%
%ADD12C,0.120000*%
%ADD13RoundRect,0.250000X0.600000X0.600000X-0.600000X0.600000X-0.600000X-0.600000X0.600000X-0.600000X0*%
%ADD14C,1.700000*%
%ADD15R,1.700000X1.700000*%
%ADD16O,1.700000X1.700000*%
G04 APERTURE END LIST*
D10*
X77168480Y-95658571D02*
X77168480Y-95029999D01*
X78268480Y-95344285D02*
X77168480Y-95344285D01*
X78268480Y-94663333D02*
X77168480Y-94663333D01*
X78268480Y-94191904D02*
X77692290Y-94191904D01*
X77692290Y-94191904D02*
X77587528Y-94244285D01*
X77587528Y-94244285D02*
X77535147Y-94349047D01*
X77535147Y-94349047D02*
X77535147Y-94506190D01*
X77535147Y-94506190D02*
X77587528Y-94610952D01*
X77587528Y-94610952D02*
X77639909Y-94663333D01*
X78268480Y-93668095D02*
X77535147Y-93668095D01*
X77168480Y-93668095D02*
X77220861Y-93720476D01*
X77220861Y-93720476D02*
X77273242Y-93668095D01*
X77273242Y-93668095D02*
X77220861Y-93615714D01*
X77220861Y-93615714D02*
X77168480Y-93668095D01*
X77168480Y-93668095D02*
X77273242Y-93668095D01*
X78216100Y-93196666D02*
X78268480Y-93091904D01*
X78268480Y-93091904D02*
X78268480Y-92882380D01*
X78268480Y-92882380D02*
X78216100Y-92777618D01*
X78216100Y-92777618D02*
X78111338Y-92725237D01*
X78111338Y-92725237D02*
X78058957Y-92725237D01*
X78058957Y-92725237D02*
X77954195Y-92777618D01*
X77954195Y-92777618D02*
X77901814Y-92882380D01*
X77901814Y-92882380D02*
X77901814Y-93039523D01*
X77901814Y-93039523D02*
X77849433Y-93144285D01*
X77849433Y-93144285D02*
X77744671Y-93196666D01*
X77744671Y-93196666D02*
X77692290Y-93196666D01*
X77692290Y-93196666D02*
X77587528Y-93144285D01*
X77587528Y-93144285D02*
X77535147Y-93039523D01*
X77535147Y-93039523D02*
X77535147Y-92882380D01*
X77535147Y-92882380D02*
X77587528Y-92777618D01*
X78216100Y-91468095D02*
X78268480Y-91363333D01*
X78268480Y-91363333D02*
X78268480Y-91153809D01*
X78268480Y-91153809D02*
X78216100Y-91049047D01*
X78216100Y-91049047D02*
X78111338Y-90996666D01*
X78111338Y-90996666D02*
X78058957Y-90996666D01*
X78058957Y-90996666D02*
X77954195Y-91049047D01*
X77954195Y-91049047D02*
X77901814Y-91153809D01*
X77901814Y-91153809D02*
X77901814Y-91310952D01*
X77901814Y-91310952D02*
X77849433Y-91415714D01*
X77849433Y-91415714D02*
X77744671Y-91468095D01*
X77744671Y-91468095D02*
X77692290Y-91468095D01*
X77692290Y-91468095D02*
X77587528Y-91415714D01*
X77587528Y-91415714D02*
X77535147Y-91310952D01*
X77535147Y-91310952D02*
X77535147Y-91153809D01*
X77535147Y-91153809D02*
X77587528Y-91049047D01*
X78268480Y-90525238D02*
X77535147Y-90525238D01*
X77168480Y-90525238D02*
X77220861Y-90577619D01*
X77220861Y-90577619D02*
X77273242Y-90525238D01*
X77273242Y-90525238D02*
X77220861Y-90472857D01*
X77220861Y-90472857D02*
X77168480Y-90525238D01*
X77168480Y-90525238D02*
X77273242Y-90525238D01*
X78268480Y-89529999D02*
X77168480Y-89529999D01*
X78216100Y-89529999D02*
X78268480Y-89634761D01*
X78268480Y-89634761D02*
X78268480Y-89844285D01*
X78268480Y-89844285D02*
X78216100Y-89949047D01*
X78216100Y-89949047D02*
X78163719Y-90001428D01*
X78163719Y-90001428D02*
X78058957Y-90053809D01*
X78058957Y-90053809D02*
X77744671Y-90053809D01*
X77744671Y-90053809D02*
X77639909Y-90001428D01*
X77639909Y-90001428D02*
X77587528Y-89949047D01*
X77587528Y-89949047D02*
X77535147Y-89844285D01*
X77535147Y-89844285D02*
X77535147Y-89634761D01*
X77535147Y-89634761D02*
X77587528Y-89529999D01*
X78216100Y-88587142D02*
X78268480Y-88691904D01*
X78268480Y-88691904D02*
X78268480Y-88901428D01*
X78268480Y-88901428D02*
X78216100Y-89006190D01*
X78216100Y-89006190D02*
X78111338Y-89058571D01*
X78111338Y-89058571D02*
X77692290Y-89058571D01*
X77692290Y-89058571D02*
X77587528Y-89006190D01*
X77587528Y-89006190D02*
X77535147Y-88901428D01*
X77535147Y-88901428D02*
X77535147Y-88691904D01*
X77535147Y-88691904D02*
X77587528Y-88587142D01*
X77587528Y-88587142D02*
X77692290Y-88534761D01*
X77692290Y-88534761D02*
X77797052Y-88534761D01*
X77797052Y-88534761D02*
X77901814Y-89058571D01*
X77535147Y-86753809D02*
X78268480Y-86753809D01*
X77535147Y-87225238D02*
X78111338Y-87225238D01*
X78111338Y-87225238D02*
X78216100Y-87172857D01*
X78216100Y-87172857D02*
X78268480Y-87068095D01*
X78268480Y-87068095D02*
X78268480Y-86910952D01*
X78268480Y-86910952D02*
X78216100Y-86806190D01*
X78216100Y-86806190D02*
X78163719Y-86753809D01*
X77535147Y-86230000D02*
X78635147Y-86230000D01*
X77587528Y-86230000D02*
X77535147Y-86125238D01*
X77535147Y-86125238D02*
X77535147Y-85915714D01*
X77535147Y-85915714D02*
X77587528Y-85810952D01*
X77587528Y-85810952D02*
X77639909Y-85758571D01*
X77639909Y-85758571D02*
X77744671Y-85706190D01*
X77744671Y-85706190D02*
X78058957Y-85706190D01*
X78058957Y-85706190D02*
X78163719Y-85758571D01*
X78163719Y-85758571D02*
X78216100Y-85810952D01*
X78216100Y-85810952D02*
X78268480Y-85915714D01*
X78268480Y-85915714D02*
X78268480Y-86125238D01*
X78268480Y-86125238D02*
X78216100Y-86230000D01*
D11*
X71866666Y-109724819D02*
X71866666Y-110439104D01*
X71866666Y-110439104D02*
X71819047Y-110581961D01*
X71819047Y-110581961D02*
X71723809Y-110677200D01*
X71723809Y-110677200D02*
X71580952Y-110724819D01*
X71580952Y-110724819D02*
X71485714Y-110724819D01*
X72866666Y-110724819D02*
X72295238Y-110724819D01*
X72580952Y-110724819D02*
X72580952Y-109724819D01*
X72580952Y-109724819D02*
X72485714Y-109867676D01*
X72485714Y-109867676D02*
X72390476Y-109962914D01*
X72390476Y-109962914D02*
X72295238Y-110010533D01*
X77896666Y-100504819D02*
X77896666Y-101219104D01*
X77896666Y-101219104D02*
X77849047Y-101361961D01*
X77849047Y-101361961D02*
X77753809Y-101457200D01*
X77753809Y-101457200D02*
X77610952Y-101504819D01*
X77610952Y-101504819D02*
X77515714Y-101504819D01*
X78325238Y-100600057D02*
X78372857Y-100552438D01*
X78372857Y-100552438D02*
X78468095Y-100504819D01*
X78468095Y-100504819D02*
X78706190Y-100504819D01*
X78706190Y-100504819D02*
X78801428Y-100552438D01*
X78801428Y-100552438D02*
X78849047Y-100600057D01*
X78849047Y-100600057D02*
X78896666Y-100695295D01*
X78896666Y-100695295D02*
X78896666Y-100790533D01*
X78896666Y-100790533D02*
X78849047Y-100933390D01*
X78849047Y-100933390D02*
X78277619Y-101504819D01*
X78277619Y-101504819D02*
X78896666Y-101504819D01*
D12*
%TO.C,J1*%
X75240000Y-108140000D02*
X74740000Y-107140000D01*
X74740000Y-107140000D02*
X74240000Y-108140000D01*
X74240000Y-108140000D02*
X75240000Y-108140000D01*
X70470000Y-111080000D02*
X61350000Y-111080000D01*
X70470000Y-92680000D02*
X61350000Y-92680000D01*
X70470000Y-88580000D02*
X61350000Y-88580000D01*
X70470000Y-70180000D02*
X70470000Y-111080000D01*
X61350000Y-111080000D02*
X61350000Y-70180000D01*
X61350000Y-70180000D02*
X70470000Y-70180000D01*
%TO.C,J2*%
X81055000Y-102120000D02*
X79945000Y-102120000D01*
X79945000Y-102120000D02*
X79945000Y-100790000D01*
%TD*%
%LPC*%
D13*
%TO.C,J1*%
X74740000Y-105870000D03*
D14*
X72200000Y-105870000D03*
X74740000Y-103330000D03*
X72200000Y-103330000D03*
X74740000Y-100790000D03*
X72200000Y-100790000D03*
X74740000Y-98250000D03*
X72200000Y-98250000D03*
X74740000Y-95710000D03*
X72200000Y-95710000D03*
X74740000Y-93170000D03*
X72200000Y-93170000D03*
X74740000Y-90630000D03*
X72200000Y-90630000D03*
X74740000Y-88090000D03*
X72200000Y-88090000D03*
X74740000Y-85550000D03*
X72200000Y-85550000D03*
X74740000Y-83010000D03*
X72200000Y-83010000D03*
X74740000Y-80470000D03*
X72200000Y-80470000D03*
X74740000Y-77930000D03*
X72200000Y-77930000D03*
X74740000Y-75390000D03*
X72200000Y-75390000D03*
%TD*%
D15*
%TO.C,J2*%
X81055000Y-100790000D03*
D16*
X83595000Y-100790000D03*
X81055000Y-98250000D03*
X83595000Y-98250000D03*
X81055000Y-95710000D03*
X83595000Y-95710000D03*
X81055000Y-93170000D03*
X83595000Y-93170000D03*
X81055000Y-90630000D03*
X83595000Y-90630000D03*
X81055000Y-88090000D03*
X83595000Y-88090000D03*
X81055000Y-85550000D03*
X83595000Y-85550000D03*
X81055000Y-83010000D03*
X83595000Y-83010000D03*
X81055000Y-80470000D03*
X83595000Y-80470000D03*
%TD*%
%LPD*%
M02*
