M48
; DRILL file {KiCad 7.0.11} date Tue Mar 11 16:16:25 2025
; FORMAT={-:-/ absolute / inch / decimal}
; #@! TF.CreationDate,2025-03-11T16:16:25+01:00
; #@! TF.GenerationSoftware,Kicad,Pcbnew,7.0.11
; #@! TF.FileFunction,MixedPlating,1,2
FMAT,2
INCH
; #@! TA.AperFunction,Plated,PTH,ComponentDrill
T1C0.0394
%
G90
G05
T1
X2.8425Y-2.9681
X2.8425Y-3.0681
X2.8425Y-3.1681
X2.8425Y-3.2681
X2.8425Y-3.3681
X2.8425Y-3.4681
X2.8425Y-3.5681
X2.8425Y-3.6681
X2.8425Y-3.7681
X2.8425Y-3.8681
X2.8425Y-3.9681
X2.8425Y-4.0681
X2.8425Y-4.1681
X2.9425Y-2.9681
X2.9425Y-3.0681
X2.9425Y-3.1681
X2.9425Y-3.2681
X2.9425Y-3.3681
X2.9425Y-3.4681
X2.9425Y-3.5681
X2.9425Y-3.6681
X2.9425Y-3.7681
X2.9425Y-3.8681
X2.9425Y-3.9681
X2.9425Y-4.0681
X2.9425Y-4.1681
X3.1911Y-3.1681
X3.1911Y-3.2681
X3.1911Y-3.3681
X3.1911Y-3.4681
X3.1911Y-3.5681
X3.1911Y-3.6681
X3.1911Y-3.7681
X3.1911Y-3.8681
X3.1911Y-3.9681
X3.2911Y-3.1681
X3.2911Y-3.2681
X3.2911Y-3.3681
X3.2911Y-3.4681
X3.2911Y-3.5681
X3.2911Y-3.6681
X3.2911Y-3.7681
X3.2911Y-3.8681
X3.2911Y-3.9681
M30
