%TF.GenerationSoftware,KiCad,Pcbnew,7.0.11*%
%TF.CreationDate,2025-03-11T16:20:29+01:00*%
%TF.ProjectId,pal-2-sd-shield-adapter,70616c2d-322d-4736-942d-736869656c64,rev?*%
%TF.SameCoordinates,Original*%
%TF.FileFunction,Copper,L1,Top*%
%TF.FilePolarity,Positive*%
%FSLAX46Y46*%
G04 Gerber Fmt 4.6, Leading zero omitted, Abs format (unit mm)*
G04 Created by KiCad (PCBNEW 7.0.11) date 2025-03-11 16:20:29*
%MOMM*%
%LPD*%
G01*
G04 APERTURE LIST*
G04 Aperture macros list*
%AMRoundRect*
0 Rectangle with rounded corners*
0 $1 Rounding radius*
0 $2 $3 $4 $5 $6 $7 $8 $9 X,Y pos of 4 corners*
0 Add a 4 corners polygon primitive as box body*
4,1,4,$2,$3,$4,$5,$6,$7,$8,$9,$2,$3,0*
0 Add four circle primitives for the rounded corners*
1,1,$1+$1,$2,$3*
1,1,$1+$1,$4,$5*
1,1,$1+$1,$6,$7*
1,1,$1+$1,$8,$9*
0 Add four rect primitives between the rounded corners*
20,1,$1+$1,$2,$3,$4,$5,0*
20,1,$1+$1,$4,$5,$6,$7,0*
20,1,$1+$1,$6,$7,$8,$9,0*
20,1,$1+$1,$8,$9,$2,$3,0*%
G04 Aperture macros list end*
%TA.AperFunction,ComponentPad*%
%ADD10RoundRect,0.250000X0.600000X0.600000X-0.600000X0.600000X-0.600000X-0.600000X0.600000X-0.600000X0*%
%TD*%
%TA.AperFunction,ComponentPad*%
%ADD11C,1.700000*%
%TD*%
%TA.AperFunction,ComponentPad*%
%ADD12R,1.700000X1.700000*%
%TD*%
%TA.AperFunction,ComponentPad*%
%ADD13O,1.700000X1.700000*%
%TD*%
%TA.AperFunction,Conductor*%
%ADD14C,0.200000*%
%TD*%
G04 APERTURE END LIST*
D10*
%TO.P,J1,1,Pin_1*%
%TO.N,PA0*%
X74740000Y-105870000D03*
D11*
%TO.P,J1,2,Pin_2*%
%TO.N,PB0*%
X72200000Y-105870000D03*
%TO.P,J1,3,Pin_3*%
%TO.N,PA1*%
X74740000Y-103330000D03*
%TO.P,J1,4,Pin_4*%
%TO.N,PB1*%
X72200000Y-103330000D03*
%TO.P,J1,5,Pin_5*%
%TO.N,PA2*%
X74740000Y-100790000D03*
%TO.P,J1,6,Pin_6*%
%TO.N,PB2*%
X72200000Y-100790000D03*
%TO.P,J1,7,Pin_7*%
%TO.N,PA3*%
X74740000Y-98250000D03*
%TO.P,J1,8,Pin_8*%
%TO.N,PB3*%
X72200000Y-98250000D03*
%TO.P,J1,9,Pin_9*%
%TO.N,PA4*%
X74740000Y-95710000D03*
%TO.P,J1,10,Pin_10*%
%TO.N,PB4*%
X72200000Y-95710000D03*
%TO.P,J1,11,Pin_11*%
%TO.N,PA5*%
X74740000Y-93170000D03*
%TO.P,J1,12,Pin_12*%
%TO.N,PB5*%
X72200000Y-93170000D03*
%TO.P,J1,13,Pin_13*%
%TO.N,PA6*%
X74740000Y-90630000D03*
%TO.P,J1,14,Pin_14*%
%TO.N,unconnected-(J1-Pin_14-Pad14)*%
X72200000Y-90630000D03*
%TO.P,J1,15,Pin_15*%
%TO.N,PA7*%
X74740000Y-88090000D03*
%TO.P,J1,16,Pin_16*%
%TO.N,unconnected-(J1-Pin_16-Pad16)*%
X72200000Y-88090000D03*
%TO.P,J1,17,Pin_17*%
%TO.N,PB6*%
X74740000Y-85550000D03*
%TO.P,J1,18,Pin_18*%
%TO.N,PB7*%
X72200000Y-85550000D03*
%TO.P,J1,19,Pin_19*%
%TO.N,unconnected-(J1-Pin_19-Pad19)*%
X74740000Y-83010000D03*
%TO.P,J1,20,Pin_20*%
%TO.N,unconnected-(J1-Pin_20-Pad20)*%
X72200000Y-83010000D03*
%TO.P,J1,21,Pin_21*%
%TO.N,unconnected-(J1-Pin_21-Pad21)*%
X74740000Y-80470000D03*
%TO.P,J1,22,Pin_22*%
%TO.N,unconnected-(J1-Pin_22-Pad22)*%
X72200000Y-80470000D03*
%TO.P,J1,23,Pin_23*%
%TO.N,unconnected-(J1-Pin_23-Pad23)*%
X74740000Y-77930000D03*
%TO.P,J1,24,Pin_24*%
%TO.N,unconnected-(J1-Pin_24-Pad24)*%
X72200000Y-77930000D03*
%TO.P,J1,25,Pin_25*%
%TO.N,GND*%
X74740000Y-75390000D03*
%TO.P,J1,26,Pin_26*%
X72200000Y-75390000D03*
%TD*%
D12*
%TO.P,J2,1,Pin_1*%
%TO.N,GND*%
X81055000Y-100790000D03*
D13*
%TO.P,J2,2,Pin_2*%
%TO.N,unconnected-(J2-Pin_2-Pad2)*%
X83595000Y-100790000D03*
%TO.P,J2,3,Pin_3*%
%TO.N,PA0*%
X81055000Y-98250000D03*
%TO.P,J2,4,Pin_4*%
%TO.N,PB0*%
X83595000Y-98250000D03*
%TO.P,J2,5,Pin_5*%
%TO.N,PA1*%
X81055000Y-95710000D03*
%TO.P,J2,6,Pin_6*%
%TO.N,PB1*%
X83595000Y-95710000D03*
%TO.P,J2,7,Pin_7*%
%TO.N,PA2*%
X81055000Y-93170000D03*
%TO.P,J2,8,Pin_8*%
%TO.N,PB2*%
X83595000Y-93170000D03*
%TO.P,J2,9,Pin_9*%
%TO.N,PA3*%
X81055000Y-90630000D03*
%TO.P,J2,10,Pin_10*%
%TO.N,PB3*%
X83595000Y-90630000D03*
%TO.P,J2,11,Pin_11*%
%TO.N,PA4*%
X81055000Y-88090000D03*
%TO.P,J2,12,Pin_12*%
%TO.N,PB4*%
X83595000Y-88090000D03*
%TO.P,J2,13,Pin_13*%
%TO.N,PA5*%
X81055000Y-85550000D03*
%TO.P,J2,14,Pin_14*%
%TO.N,PB5*%
X83595000Y-85550000D03*
%TO.P,J2,15,Pin_15*%
%TO.N,PA6*%
X81055000Y-83010000D03*
%TO.P,J2,16,Pin_16*%
%TO.N,PB6*%
X83595000Y-83010000D03*
%TO.P,J2,17,Pin_17*%
%TO.N,PA7*%
X81055000Y-80470000D03*
%TO.P,J2,18,Pin_18*%
%TO.N,PB7*%
X83595000Y-80470000D03*
%TD*%
D14*
%TO.N,PA0*%
X75890000Y-102530000D02*
X75890000Y-104720000D01*
X81055000Y-98250000D02*
X80170000Y-98250000D01*
X80170000Y-98250000D02*
X75890000Y-102530000D01*
X75890000Y-104720000D02*
X74740000Y-105870000D01*
%TO.N,PB0*%
X76290000Y-106550000D02*
X75626000Y-107214000D01*
X82385000Y-99460000D02*
X79525686Y-99460000D01*
X73544000Y-107214000D02*
X72200000Y-105870000D01*
X76290000Y-102695686D02*
X76290000Y-106550000D01*
X75626000Y-107214000D02*
X73544000Y-107214000D01*
X79525686Y-99460000D02*
X76290000Y-102695686D01*
X83595000Y-98250000D02*
X82385000Y-99460000D01*
%TO.N,PA1*%
X79690000Y-98114315D02*
X75490000Y-102314315D01*
X74740000Y-103068000D02*
X74740000Y-103330000D01*
X75490000Y-102314315D02*
X75490000Y-102318000D01*
X75490000Y-102318000D02*
X74740000Y-103068000D01*
X81055000Y-95710000D02*
X79690000Y-97075000D01*
X79690000Y-97075000D02*
X79690000Y-98114315D01*
%TO.N,PB1*%
X79905000Y-94935000D02*
X79905000Y-95986370D01*
X83595000Y-95710000D02*
X82315000Y-94430000D01*
X79268000Y-97970629D02*
X75188629Y-102050000D01*
X75188629Y-102050000D02*
X73480000Y-102050000D01*
X82315000Y-94430000D02*
X80410000Y-94430000D01*
X80410000Y-94430000D02*
X79905000Y-94935000D01*
X79268000Y-96623371D02*
X79268000Y-97970629D01*
X73480000Y-102050000D02*
X72200000Y-103330000D01*
X79905000Y-95986370D02*
X79268000Y-96623371D01*
%TO.N,PA2*%
X79505000Y-95820685D02*
X79505000Y-94720000D01*
X78868000Y-96457686D02*
X79505000Y-95820685D01*
X79505000Y-94720000D02*
X81055000Y-93170000D01*
X78868000Y-97802000D02*
X78868000Y-96457686D01*
X75880000Y-100790000D02*
X78868000Y-97802000D01*
X74740000Y-100790000D02*
X75880000Y-100790000D01*
%TO.N,PB2*%
X72200000Y-100790000D02*
X73470000Y-99520000D01*
X75240000Y-99520000D02*
X79105000Y-95655000D01*
X79884000Y-92426000D02*
X80410000Y-91900000D01*
X73470000Y-99520000D02*
X75240000Y-99520000D01*
X82325000Y-91900000D02*
X83595000Y-93170000D01*
X79105000Y-94450686D02*
X79884000Y-93671685D01*
X79884000Y-93671685D02*
X79884000Y-92426000D01*
X79105000Y-95655000D02*
X79105000Y-94450686D01*
X80410000Y-91900000D02*
X82325000Y-91900000D01*
%TO.N,PA3*%
X79484000Y-92201000D02*
X81055000Y-90630000D01*
X74740000Y-98250000D02*
X79484000Y-93506000D01*
X79484000Y-93506000D02*
X79484000Y-92201000D01*
%TO.N,PB3*%
X80360000Y-89360000D02*
X79080000Y-90640000D01*
X73480000Y-96970000D02*
X72200000Y-98250000D01*
X82325000Y-89360000D02*
X80360000Y-89360000D01*
X79080000Y-93340000D02*
X75450000Y-96970000D01*
X75450000Y-96970000D02*
X73480000Y-96970000D01*
X83595000Y-90630000D02*
X82325000Y-89360000D01*
X79080000Y-90640000D02*
X79080000Y-93340000D01*
%TO.N,PA4*%
X76140000Y-95710000D02*
X78670000Y-93180000D01*
X78670000Y-93180000D02*
X78670000Y-90475000D01*
X78670000Y-90475000D02*
X81055000Y-88090000D01*
X74740000Y-95710000D02*
X76140000Y-95710000D01*
%TO.N,PB4*%
X83595000Y-88090000D02*
X82325000Y-86820000D01*
X80364327Y-86820000D02*
X77590000Y-89594327D01*
X73470000Y-94440000D02*
X72200000Y-95710000D01*
X75748000Y-94440000D02*
X73470000Y-94440000D01*
X77590000Y-92598000D02*
X75748000Y-94440000D01*
X82325000Y-86820000D02*
X80364327Y-86820000D01*
X77590000Y-89594327D02*
X77590000Y-92598000D01*
%TO.N,PA5*%
X74740000Y-93170000D02*
X75400000Y-93170000D01*
X77160000Y-91410000D02*
X77160000Y-89445000D01*
X77160000Y-89445000D02*
X81055000Y-85550000D01*
X75400000Y-93170000D02*
X77160000Y-91410000D01*
%TO.N,PB5*%
X83595000Y-85550000D02*
X82325000Y-84280000D01*
X73470000Y-91900000D02*
X72200000Y-93170000D01*
X79730000Y-86300000D02*
X76760000Y-89270000D01*
X80420000Y-84280000D02*
X79730000Y-84970000D01*
X79730000Y-84970000D02*
X79730000Y-86300000D01*
X76760000Y-90530000D02*
X75390000Y-91900000D01*
X75390000Y-91900000D02*
X73470000Y-91900000D01*
X82325000Y-84280000D02*
X80420000Y-84280000D01*
X76760000Y-89270000D02*
X76760000Y-90530000D01*
%TO.N,PA6*%
X79330000Y-86130000D02*
X79330000Y-84735000D01*
X74740000Y-90630000D02*
X74830000Y-90630000D01*
X79330000Y-84735000D02*
X81055000Y-83010000D01*
X74830000Y-90630000D02*
X79330000Y-86130000D01*
%TO.N,PA7*%
X81055000Y-80470000D02*
X78530000Y-82995000D01*
X78530000Y-82995000D02*
X78530000Y-84300000D01*
X78530000Y-84300000D02*
X74740000Y-88090000D01*
%TO.N,PB6*%
X73470000Y-86820000D02*
X74740000Y-85550000D01*
X74140000Y-89360000D02*
X73470000Y-88690000D01*
X83595000Y-83010000D02*
X82445000Y-81860000D01*
X78930000Y-85960000D02*
X75530000Y-89360000D01*
X78930000Y-83187685D02*
X78930000Y-85960000D01*
X82445000Y-81860000D02*
X80257685Y-81860000D01*
X73470000Y-88690000D02*
X73470000Y-86820000D01*
X75530000Y-89360000D02*
X74140000Y-89360000D01*
X80257685Y-81860000D02*
X78930000Y-83187685D01*
%TO.N,PB7*%
X75390000Y-84280000D02*
X73470000Y-84280000D01*
X73470000Y-84280000D02*
X72200000Y-85550000D01*
X83595000Y-80470000D02*
X82365000Y-79240000D01*
X82365000Y-79240000D02*
X80430000Y-79240000D01*
X80430000Y-79240000D02*
X75390000Y-84280000D01*
%TD*%
M02*
